/* XPM */
static char * bitcoin16_xpm[] = {
"16 16 154 2",
"  	c None",
". 	c #F8E2E9",
"+ 	c #EEBECE",
"@ 	c #FFE6FF",
"# 	c #FEDFFF",
"$ 	c #F3C9D6",
"% 	c #FFFFFF",
"& 	c #EFBECD",
"* 	c #E9A5C1",
"= 	c #FFE1FF",
"- 	c #FFE0FF",
"; 	c #F5D6E0",
"> 	c #E495AF",
", 	c #D96A8C",
"' 	c #E189A5",
") 	c #E69BB2",
"! 	c #F5C4E3",
"~ 	c #FDDFFF",
"{ 	c #FBD8F6",
"] 	c #EFBAD1",
"^ 	c #F3CAD8",
"/ 	c #DF819F",
"( 	c #E8A0B7",
"_ 	c #CE4C73",
": 	c #C22957",
"< 	c #D24F77",
"[ 	c #DC7898",
"} 	c #FEE0FF",
"| 	c #FEDEFF",
"1 	c #F8D0EC",
"2 	c #E28EA7",
"3 	c #ECAFC4",
"4 	c #F7DAE3",
"5 	c #E493AD",
"6 	c #F4C5E1",
"7 	c #E69CB4",
"8 	c #F1C7D5",
"9 	c #DE809E",
"0 	c #CA5177",
"a 	c #D8678B",
"b 	c #E28BAB",
"c 	c #ECA9C6",
"d 	c #F1BAD7",
"e 	c #DE84A0",
"f 	c #D36285",
"g 	c #DC7596",
"h 	c #DE7C9B",
"i 	c #F4CFDC",
"j 	c #E89FB5",
"k 	c #F6C9E7",
"l 	c #E79FB5",
"m 	c #F1C3D2",
"n 	c #E9A4BA",
"o 	c #BE305B",
"p 	c #BF4369",
"q 	c #D36889",
"r 	c #F7DAE4",
"s 	c #EFBCCC",
"t 	c #D26C8B",
"u 	c #DD7696",
"v 	c #E28CA7",
"w 	c #DA7192",
"x 	c #E085A2",
"y 	c #E18AA5",
"z 	c #F9D3F2",
"A 	c #E699B0",
"B 	c #F2CAD7",
"C 	c #EEB9CA",
"D 	c #E696B0",
"E 	c #EFC4D1",
"F 	c #F5D1DD",
"G 	c #DD83A0",
"H 	c #D6698B",
"I 	c #E69DB4",
"J 	c #DB7394",
"K 	c #DF83A0",
"L 	c #E084A2",
"M 	c #E084A1",
"N 	c #F4C8DF",
"O 	c #FFE4FF",
"P 	c #E0859F",
"Q 	c #DE7E9D",
"R 	c #E592AD",
"S 	c #E59DB4",
"T 	c #E38FA9",
"U 	c #DF82A3",
"V 	c #F7C9E8",
"W 	c #E595B0",
"X 	c #F2C5D3",
"Y 	c #F1C6D4",
"Z 	c #E597B1",
"` 	c #F2C8D6",
" .	c #FAE8ED",
"..	c #EBA5C2",
"+.	c #FFE2FF",
"@.	c #F7DFE9",
"#.	c #E289A6",
"$.	c #D46587",
"%.	c #E086A2",
"&.	c #F4C7DF",
"*.	c #DD7D9B",
"=.	c #ECB3C6",
"-.	c #F5D5DF",
";.	c #FAE7ED",
">.	c #EEBAC9",
",.	c #FAD6F3",
"'.	c #FDDEFC",
").	c #F2CAD6",
"!.	c #FCF0F4",
"~.	c #FEF6F8",
"{.	c #FFFAFC",
"].	c #E596AF",
"^.	c #FCDCF8",
"/.	c #F3C8DA",
"(.	c #DB7192",
"_.	c #F8E1E8",
":.	c #E28BA7",
"<.	c #E490AA",
"[.	c #EEBBCA",
"}.	c #FDE0FC",
"|.	c #E9A8BE",
"1.	c #E7A0B6",
"2.	c #F7DEE6",
"3.	c #FAECF1",
"4.	c #FEF6FC",
"5.	c #F3D0DA",
"6.	c #F7DCE4",
"7.	c #FAECF0",
"8.	c #FADFF0",
"9.	c #F1BBD5",
"0.	c #F5C7DF",
"a.	c #F6C8E3",
"b.	c #EAABBF",
"c.	c #FAE3EE",
"d.	c #F4D4DB",
"e.	c #F8DEE6",
"f.	c #FBE5F2",
"g.	c #FFE5FF",
"h.	c #E69BB1",
"i.	c #FDDCFB",
"j.	c #ECB5C7",
"k.	c #F6D6E0",
"l.	c #F9E4E9",
"m.	c #FEDCFF",
"n.	c #F7CFEB",
"o.	c #FBDFFF",
"p.	c #EEB5CD",
"q.	c #E9A5BB",
"r.	c #EDB6C8",
"s.	c #F6DAE2",
"t.	c #FBDDF5",
"u.	c #F5CAE3",
"v.	c #E9A7BD",
"w.	c #E9A9BD",
"      . + @ # # # # #           ",
"    $ % & * = # # # # # -       ",
"  ; > , ' ) ! ~ # # # { ] ^     ",
"  / ( _ : < [ @ } | 1 2 3 4 5   ",
"  6 7 8 9 0 a b c d e f g h i j ",
"# k l m n o p q r s t u v w x y ",
"# z A B C D E F G H I J K L M N ",
"# O P Q R S T U V W X Y Z `  ...",
"# +.@.#.$.R %.O # &.*.=.-.;.>.,.",
"'.).!.~.{.].^.# } /.(._.:.<.[.}.",
"|.1.2.3.4.+.# # = 5.6.7.8.9.0.# ",
"  a.b.c.| # # # } d.e._.f.| #   ",
"  g.h.i.# # # # O j.k.6.l.m.#   ",
"    n.= # ~ ~ o.- p.q.r.s.t.    ",
"      # # # # # # u.n n v.w.    ",
"          # # # # } 1.          "};
