/* XPM */
static char * bitcoin32_xpm[] = {
"32 32 436 2",
"  	c None",
". 	c #ECB3C5",
"+ 	c #FDF5F7",
"@ 	c #FEDFFF",
"# 	c #E69AB2",
"$ 	c #F6D7E1",
"% 	c #FFFFFF",
"& 	c #F4D0DC",
"* 	c #E9A6BE",
"= 	c #FFE1FF",
"- 	c #E698B1",
"; 	c #EDB3C5",
"> 	c #FEFBFC",
", 	c #FFFBFD",
"' 	c #F3CBD8",
") 	c #E493AD",
"! 	c #E497B4",
"~ 	c #FFE5FF",
"{ 	c #F4CEDA",
"] 	c #FFFBFC",
"^ 	c #FCF2F5",
"/ 	c #FBEFF3",
"( 	c #F9E3E9",
"_ 	c #EDB6C8",
": 	c #DF809E",
"< 	c #EAABC8",
"[ 	c #FFE0FF",
"} 	c #F8E1E8",
"| 	c #F5D5E0",
"1 	c #E8A1B8",
"2 	c #E187A4",
"3 	c #E28AA5",
"4 	c #EAA9BE",
"5 	c #EFB9CB",
"6 	c #DA6F8F",
"7 	c #F7CEEC",
"8 	c #FDDFFF",
"9 	c #FFE2FF",
"0 	c #F9D6F3",
"a 	c #F7D2E7",
"b 	c #F9E2ED",
"c 	c #E9A6BC",
"d 	c #F2CBD7",
"e 	c #EEBACB",
"f 	c #E491AC",
"g 	c #D66286",
"h 	c #D45B80",
"i 	c #D3577E",
"j 	c #D04972",
"k 	c #D7668A",
"l 	c #E7A0B7",
"m 	c #DB7395",
"n 	c #FFE3FF",
"o 	c #FCDCFC",
"p 	c #EDB2CB",
"q 	c #E699B0",
"r 	c #FAE8ED",
"s 	c #ECB0C4",
"t 	c #E38FAA",
"u 	c #DE83A0",
"v 	c #E186A3",
"w 	c #E38EA9",
"x 	c #E493AC",
"y 	c #D55F83",
"z 	c #C93763",
"A 	c #C4305D",
"B 	c #D14D75",
"C 	c #DE7C9B",
"D 	c #DC7494",
"E 	c #E8A3C1",
"F 	c #FCDBF8",
"G 	c #E69CB4",
"H 	c #E595AE",
"I 	c #E8A3BA",
"J 	c #F2C9D7",
"K 	c #FBEAEF",
"L 	c #EDB4C7",
"M 	c #E392AC",
"N 	c #E28DAB",
"O 	c #E38FA9",
"P 	c #E9A4BB",
"Q 	c #EAA7BC",
"R 	c #E38DA9",
"S 	c #C22F5B",
"T 	c #C4315D",
"U 	c #C32D59",
"V 	c #CB3F6A",
"W 	c #CF4972",
"X 	c #DD7999",
"Y 	c #D8688A",
"Z 	c #F9D5F3",
"` 	c #FBDAF7",
" .	c #E597B0",
"..	c #E390AB",
"+.	c #E28BA7",
"@.	c #E595AF",
"#.	c #EDB3C6",
"$.	c #F5D4DF",
"%.	c #F5D4DE",
"&.	c #EBADC1",
"*.	c #FDDFFD",
"=.	c #E79EB5",
"-.	c #EAAAC0",
";.	c #EEBBCC",
">.	c #E8A8BC",
",.	c #D77191",
"'.	c #DD7B9B",
").	c #CA5D7F",
"!.	c #CC587C",
"~.	c #D55F84",
"{.	c #DD7B9A",
"].	c #E085A4",
"^.	c #FAD2F2",
"/.	c #FBD6F5",
"(.	c #F6C7E7",
"_.	c #FFE8FF",
":.	c #E699B3",
"<.	c #E084A1",
"[.	c #DE809E",
"}.	c #DB7293",
"|.	c #DF7F9E",
"1.	c #EBACC1",
"2.	c #F5D5DF",
"3.	c #EDB5C8",
"4.	c #E697AF",
"5.	c #EDB2CA",
"6.	c #E495AE",
"7.	c #E79FB7",
"8.	c #F6D6E0",
"9.	c #EDB9CA",
"0.	c #DA6E90",
"a.	c #D65C83",
"b.	c #C13661",
"c.	c #CB4E75",
"d.	c #D6688C",
"e.	c #D86D8F",
"f.	c #DC7897",
"g.	c #E18CA6",
"h.	c #E18AA5",
"i.	c #DC7495",
"j.	c #E9A5BF",
"k.	c #E48DA8",
"l.	c #CE6788",
"m.	c #C6466D",
"n.	c #CF5178",
"o.	c #D8678A",
"p.	c #E083A2",
"q.	c #D96D8E",
"r.	c #DC7798",
"s.	c #F7DCE6",
"t.	c #ECB0C3",
"u.	c #ECADC8",
"v.	c #E69AB3",
"w.	c #E9A5BB",
"x.	c #F2C9D6",
"y.	c #EFBCCC",
"z.	c #ECB1C4",
"A.	c #DD7797",
"B.	c #D4577F",
"C.	c #C1345F",
"D.	c #A4234A",
"E.	c #B24365",
"F.	c #D55A81",
"G.	c #E69FB5",
"H.	c #ECB2C4",
"I.	c #F3CCD9",
"J.	c #E8A3B9",
"K.	c #BE3962",
"L.	c #C13A63",
"M.	c #CE436E",
"N.	c #D14D76",
"O.	c #D8688B",
"P.	c #E391AB",
"Q.	c #DC7898",
"R.	c #DB7394",
"S.	c #E291AA",
"T.	c #EFB4D1",
"U.	c #E9A5BA",
"V.	c #E8A2B8",
"W.	c #EDB7C9",
"X.	c #F0C3D1",
"Y.	c #C2305B",
"Z.	c #B12852",
"`.	c #D85E84",
" +	c #D8577F",
".+	c #C1496E",
"++	c #DC809D",
"@+	c #EFBFCF",
"#+	c #FFFCFD",
"$+	c #EBACC0",
"%+	c #E9A3BA",
"&+	c #ECAEC2",
"*+	c #ECACC1",
"=+	c #E491AB",
"-+	c #E596AF",
";+	c #E38DA8",
">+	c #DA7092",
",+	c #DB7192",
"'+	c #E189A5",
")+	c #E594AC",
"!+	c #E494B1",
"~+	c #F2BDD9",
"{+	c #EBA9BD",
"]+	c #E79EB6",
"^+	c #F6D6E1",
"/+	c #EEBBCB",
"(+	c #EEB7C9",
"_+	c #DF7E9C",
":+	c #D8678B",
"<+	c #D65E84",
"[+	c #D65F84",
"}+	c #E394AC",
"|+	c #F1C7D4",
"1+	c #F7DBE4",
"2+	c #E28AA6",
"3+	c #D56D8E",
"4+	c #E286A3",
"5+	c #DA6F91",
"6+	c #D86B8D",
"7+	c #D86C8E",
"8+	c #DD7898",
"9+	c #D45A81",
"0+	c #EBABC0",
"a+	c #EEBAD3",
"b+	c #FFE7FF",
"c+	c #F6CAE9",
"d+	c #EAA9BD",
"e+	c #EAAABF",
"f+	c #F3CEDA",
"g+	c #F5D6E0",
"h+	c #F1C7D5",
"i+	c #F0BECE",
"j+	c #FFFEFF",
"k+	c #F4CCD9",
"l+	c #E79FB6",
"m+	c #E084A2",
"n+	c #CF5C81",
"o+	c #D05E80",
"p+	c #DB7193",
"q+	c #E094AC",
"r+	c #FAE7ED",
"s+	c #E38CA8",
"t+	c #E598B1",
"u+	c #E9A4BA",
"v+	c #F5CDE5",
"w+	c #FCD9F9",
"x+	c #EDB4C5",
"y+	c #DE7E9D",
"z+	c #ECB2C5",
"A+	c #E79DB4",
"B+	c #D1597F",
"C+	c #DE82A2",
"D+	c #DB6F92",
"E+	c #FCD8F5",
"F+	c #E591AE",
"G+	c #F8DEE6",
"H+	c #E596B0",
"I+	c #E9A3B9",
"J+	c #F3D0DC",
"K+	c #F9E3EA",
"L+	c #F3CDD9",
"M+	c #E494AE",
"N+	c #F2C0DA",
"O+	c #E493AB",
"P+	c #E28EAA",
"Q+	c #E593AD",
"R+	c #E99FB7",
"S+	c #E394AD",
"T+	c #DD809E",
"U+	c #E085A1",
"V+	c #D96A8D",
"W+	c #FFE9FF",
"X+	c #F3C1DA",
"Y+	c #E9A7BC",
"Z+	c #E494AD",
"`+	c #E495AF",
" @	c #F2CAD7",
".@	c #F8DFE7",
"+@	c #F7DBE3",
"@@	c #DE7A99",
"#@	c #FFE6FF",
"$@	c #F4CCE5",
"%@	c #EEC2D0",
"&@	c #E79BB3",
"*@	c #D96B8E",
"=@	c #CA456E",
"-@	c #CC5277",
";@	c #D7658A",
">@	c #E48EA9",
",@	c #DB7393",
"'@	c #F7CFEA",
")@	c #EBB1C2",
"!@	c #E087A3",
"~@	c #D35A7F",
"{@	c #F8E2E9",
"]@	c #F1C4D3",
"^@	c #EBAEC1",
"/@	c #F7DAE3",
"(@	c #F8E2E8",
"_@	c #EEBACA",
":@	c #ECABC7",
"<@	c #FEE0FF",
"[@	c #FEDEFF",
"}@	c #FCE7F6",
"|@	c #FBF1F2",
"1@	c #E28CA7",
"2@	c #E79BB4",
"3@	c #DC7696",
"4@	c #EFB6CD",
"5@	c #FAD8F6",
"6@	c #EAA6BB",
"7@	c #E69DB4",
"8@	c #E086A3",
"9@	c #F0C2D1",
"0@	c #FAE9EE",
"a@	c #F9E6EC",
"b@	c #F2C8D6",
"c@	c #FCDFF6",
"d@	c #F3C9DD",
"e@	c #FAE6EB",
"f@	c #FAEBF0",
"g@	c #FBEDF2",
"h@	c #F9E1E9",
"i@	c #FBEBF1",
"j@	c #EDB2C8",
"k@	c #FEE1FF",
"l@	c #F8D9EF",
"m@	c #EDB5C7",
"n@	c #D3567E",
"o@	c #FCEFF3",
"p@	c #E38EAA",
"q@	c #E8A0B7",
"r@	c #EDB2C5",
"s@	c #E188A4",
"t@	c #F6D7E0",
"u@	c #FEE5FD",
"v@	c #F5CBE4",
"w@	c #EAAABE",
"x@	c #FBEBF0",
"y@	c #FEF8FA",
"z@	c #FDF2F6",
"A@	c #EFBACA",
"B@	c #F2C1D6",
"C@	c #F6D3E6",
"D@	c #D96B8D",
"E@	c #ECB3C6",
"F@	c #E085A2",
"G@	c #E187A3",
"H@	c #EDB1C4",
"I@	c #F4D3DE",
"J@	c #FADCF1",
"K@	c #E9A9BD",
"L@	c #E8A2B9",
"M@	c #EEB6C8",
"N@	c #F7DDE5",
"O@	c #FBECF1",
"P@	c #FCF1F5",
"Q@	c #FFFDFE",
"R@	c #FFFFFE",
"S@	c #FCE2F7",
"T@	c #F3D1DF",
"U@	c #F0C1D1",
"V@	c #FBEEF3",
"W@	c #F9E6EF",
"X@	c #F0B7D2",
"Y@	c #E598B3",
"Z@	c #E08AA5",
"`@	c #E596AE",
" #	c #F3C5D9",
".#	c #FDDDFA",
"+#	c #E8ABBD",
"@#	c #E89FB7",
"##	c #E69BB2",
"$#	c #E8A4BA",
"%#	c #FDE1FD",
"&#	c #F3CFD9",
"*#	c #F8E0E7",
"=#	c #FDF4F6",
"-#	c #F8E1E7",
";#	c #FDF5F5",
">#	c #FCDAFC",
",#	c #E79DB3",
"'#	c #F2C7D5",
")#	c #FAE8EE",
"!#	c #FCDBFD",
"~#	c #F4D2DA",
"{#	c #F8DFE6",
"]#	c #F9E5EB",
"^#	c #FBEEF2",
"/#	c #FDE4FC",
"(#	c #F1B8D1",
"_#	c #F3CFDA",
":#	c #FDDFFC",
"<#	c #FFDFFF",
"[#	c #EFC0CE",
"}#	c #F7DEE6",
"|#	c #FBE2F3",
"1#	c #FCDAF9",
"2#	c #E69CB2",
"3#	c #F5CAE1",
"4#	c #FCDFFF",
"5#	c #FFE4FF",
"6#	c #EAB2C5",
"7#	c #F3CDDA",
"8#	c #F9E2EC",
"9#	c #EEB2CC",
"0#	c #E7A2B7",
"a#	c #FDDCFC",
"b#	c #EFBAD0",
"c#	c #ECB0C2",
"d#	c #F1C3D3",
"e#	c #F3CAD7",
"f#	c #FAEAED",
"g#	c #FCD8FA",
"h#	c #FAD4F2",
"i#	c #EEB4CD",
"j#	c #F8DFFF",
"k#	c #F9DFFE",
"l#	c #F5DEFF",
"m#	c #F1C1DA",
"n#	c #EAA6BC",
"o#	c #EAA8BD",
"p#	c #F4D1DC",
"q#	c #F7DCE4",
"r#	c #FCE0F7",
"s#	c #FCDCFB",
"t#	c #F7D0EC",
"u#	c #E9A7BD",
"v#	c #F4CEDE",
"w#	c #E8A6BB",
"x#	c #EBADC0",
"y#	c #EBAFC3",
"z#	c #EFBBD2",
"A#	c #EAACC0",
"B#	c #F7D1EC",
"C#	c #EDAFC5",
"            . +         @ @ @ @ @ @ @ @                         ",
"          # $ % & * = @ @ @ @ @ @ @ @ @ @ @ @                   ",
"        - ; > , ' ) ! ~ @ @ @ @ @ @ @ @ @ @ @ @ @               ",
"        { ] ^ / ( _ : < [ @ @ @ @ @ @ @ @ @ @ @ @ @             ",
"      } | 1 2 3 4 ' 5 6 7 @ @ 8 @ @ @ @ @ @ @ 9 0 a b c )       ",
"    d e f g h i j k l - m n @ 8 @ @ @ @ @ @ o p q e r s t       ",
"    u v w x y z A z B C D E [ @ @ @ @ @ @ F G H I J K L M t     ",
"    N O P Q R S T U V W X Y Z @ @ @ @ @ `  ...+.@.#.$.%.&.)     ",
"    *...=.-.;.>.,.'.).!.~.{.].^./.(._.*.:.<.: C [.}.|.1.2.3.4.  ",
"  @ = 5.6.7.8.9.=.0.a.b.c.d.e.f.g.h.i.j.k.l.m.n.o.p.q.r.c s.t.  ",
"  @ = u.v.w.x.y.z.A.B.C.D.E.F.G.H.I.J.l K.L.M.N.O.P.Q.R.{.h.S.[.",
"  @ @ T.U.V.I.W.X.R Y.Z.`. +.+++@+#+} $+%+&+*+=+-+;+>+,+'+-+)+!+",
"@ @ @ ~+{+]+^+/+(+_+:+<+[+}+|+1+e 6.2+3+4+5+6+6+7+8+C 9+X 0+a+b+",
"@ @ @ c+d+2 e+f+g+h+i+' j+#+k+l+m+n+o+p+q+r+=+s+-+ .) t.t+}.u+v+",
"@ @ @ w+x+<.C >+y+@.&.z+H.A+B+C+D+E+F+}.x.& G+-+-+H+I+J+K+L+M+N+",
"@ @ @ ~ O+0.w P+Q+R+S+T+U+i.V+W+~ @ X+Y+Z+{ | e `+&. @.@} +@@@#@",
"@ @ @ = $@%@&@*@=@-@;@>@# ,@'@@ @ @ ~ )@!@~@w.{@]@^@/@} (@_@:@<@",
"@ @ [@}@|@(@_ m+1@u+^@2@3@4@9 @ @ @ 5@6@7@O 8@9@{@0@a@{@b@Z+c@@ ",
"@ = d@e@f@g@e@h@i@r+-+8+j@k@@ @ @ @ l@m@n@A+# o@p@q@r@H+s@t@u@@ ",
"<@v@w@8.x@y@j+% % z@A@B@= @ @ @ @ <@C@0+D@v.a@/ E@F@<.G@H@I@J@@ ",
"  K@L@M@N@O@g@P@Q@R@S@[ @ @ @ @ @ k@T@U@V.%.V@/ W@X@Y@Z@`@ #.#  ",
"+#@###$#@+K+f@f@P@%#@ @ @ @ @ @ @ @ &#*#=#^ -#/ ;#>#n b+b+<@@   ",
"  b+k@,#c '#)#O@*.@ @ @ @ @ @ @ @ !#~#.@{#*#*#]#^#/#@ @ @ @ @   ",
"    <@(#V.e+_#:#@ 8 <#@ @ @ @ @ @ 9 [#}#*#*#*#*#.@|#@ @ @ @     ",
"    @ 1#2#q@3#@ @ 8 4#@ @ @ @ @ @ 5#6#7#}#*#*#*#*#8#<#@ @ @     ",
"      k@9#0#a#@ @ @ @ @ @ @ @ @ @ = b#c#d#e#f+N@*#f#g#@ @       ",
"        h#i#[ @ @ @ @ j#k#@ 8 l#<#@ m#n#o#w@t.p#*#q#r#@         ",
"          s#@ @ @ @ @ <#<#@ @ <#@ @ t#U.w.w.u#W.I.%.v#          ",
"            @ @ @ @ @ @ @ @ @ @ @ @ k@w#w.w.w.o#x#y#t.          ",
"              @ @ @ @ @ @ @ @ @ @ @ = z#w.w.w.u+w.w.u+A#        ",
"                  @ @ @ @ @ @ @ @ @ @ B#I+w.C#        w.        ",
"                        @ @ @ @ @ @ @ n J.                      "};
